<?xml version="1.0" encoding="UTF-8" standalone="no"?>
<svg
   width="16"
   height="16"
   version="1.1"
   id="svg1"
   sodipodi:docname="component.svg"
   inkscape:version="1.4.2 (f4327f4, 2025-05-13)"
   xmlns:inkscape="http://www.inkscape.org/namespaces/inkscape"
   xmlns:sodipodi="http://sodipodi.sourceforge.net/DTD/sodipodi-0.dtd"
   xmlns="http://www.w3.org/2000/svg"
   xmlns:svg="http://www.w3.org/2000/svg">
  <defs
     id="defs1" />
  <sodipodi:namedview
     id="namedview1"
     pagecolor="#ffffff"
     bordercolor="#000000"
     borderopacity="0.25"
     inkscape:showpageshadow="2"
     inkscape:pageopacity="0.0"
     inkscape:pagecheckerboard="0"
     inkscape:deskcolor="#d1d1d1"
     inkscape:zoom="11.313709"
     inkscape:cx="-10.38563"
     inkscape:cy="5.4358831"
     inkscape:window-width="1920"
     inkscape:window-height="1009"
     inkscape:window-x="-8"
     inkscape:window-y="-8"
     inkscape:window-maximized="1"
     inkscape:current-layer="svg1" />
  <path
     fill="#f0caa0"
     d="M 2,1 C 1.4477153,1 1,1.4477153 1,2 v 8 c 0,0.552285 0.4477153,1 1,1 h 3 v 0.25 c -1.7725806,1.0234 -1.0456737,3.731707 1,3.731707 2.0456737,0 2.7725806,-2.708307 1,-3.731707 V 11 h 3 c 0.552285,0 1,-0.447715 1,-1 V 7 h 0.25 c 1.0234,1.7725806 3.731707,1.0456737 3.731707,-1 0,-2.0456737 -2.708307,-2.7725806 -3.731707,-1 H 11 V 2 C 11,1.4477153 10.552285,1 10,1 Z"
     id="path1"
     style="fill:#f9c22b;fill-opacity:1"
     sodipodi:nodetypes="ssssccsccssccsccsss" />
</svg>
